<?xml version="1.0" standalone="no"?>
<!DOCTYPE svg PUBLIC "-//W3C//DTD SVG 20010904//EN"
 "http://www.w3.org/TR/2001/REC-SVG-20010904/DTD/svg10.dtd">
<svg version="1.0" xmlns="http://www.w3.org/2000/svg"
 width="102.000000pt" height="102.000000pt" viewBox="0 0 102.000000 102.000000"
 preserveAspectRatio="xMidYMid meet">

<g transform="translate(0.000000,102.000000) scale(0.100000,-0.100000)"
fill="#000000" stroke="none">
<path d="M100 952 c0 -5 10 -17 21 -28 12 -10 30 -32 39 -47 l18 -29 23 41
c12 22 31 43 41 47 10 3 18 10 18 15 0 19 -24 8 -55 -26 -23 -24 -35 -30 -38
-21 -7 17 -67 61 -67 48z"/>
<path d="M761 861 l33 -38 35 36 c26 26 32 37 21 40 -7 2 -22 -7 -32 -19 l-18
-22 -26 21 c-42 33 -48 25 -13 -18z"/>
<path d="M440 835 c-13 -14 -32 -25 -42 -25 -29 0 -21 -17 11 -23 33 -7 48
-34 27 -51 -39 -29 -34 -113 8 -129 9 -4 16 -13 16 -22 0 -8 5 -15 10 -15 19
0 10 -45 -11 -58 -28 -18 -48 -70 -42 -106 l6 -29 -53 7 c-29 4 -64 16 -78 27
-95 74 -227 15 -227 -103 0 -33 7 -55 23 -78 l24 -32 -22 -20 c-23 -22 -15
-42 22 -54 19 -6 19 -6 1 -20 -16 -12 -4 -13 87 -14 59 0 110 4 116 10 5 5 24
6 47 1 33 -8 39 -6 56 16 11 13 22 29 24 36 3 8 10 7 24 -6 25 -22 42 -21 73
3 34 27 50 25 50 -5 0 -14 5 -25 10 -25 6 0 10 -7 10 -16 0 -13 7 -15 38 -11
20 3 60 9 89 13 33 4 76 20 115 43 56 33 63 40 60 65 -2 15 2 34 8 41 8 10 6
24 -10 54 -23 45 -35 48 -134 32 l-48 -8 6 41 c4 23 13 47 20 54 7 7 49 20 94
30 76 15 108 32 63 32 -10 0 -37 18 -59 40 -36 37 -44 40 -93 40 -59 0 -131
-28 -147 -56 -9 -16 -11 -16 -33 0 -13 9 -36 16 -51 16 -34 0 -38 28 -9 54 15
14 30 16 85 10 61 -6 66 -5 60 11 -6 16 -3 17 29 11 41 -8 42 -7 26 28 -9 18
-22 26 -53 32 -26 4 -55 19 -79 40 -20 19 -42 34 -47 34 -7 0 -7 6 0 19 15 29
12 56 -8 74 -27 24 -65 21 -92 -8z m74 2 c38 -27 -2 -95 -41 -71 -25 16 -29
55 -7 71 10 7 21 13 24 13 3 0 14 -6 24 -13z m-22 -113 c-30 -21 -28 -59 5
-90 l28 -26 -34 4 c-47 4 -79 47 -63 83 7 14 27 32 45 40 39 16 49 10 19 -11z
m104 -48 c49 -48 58 -77 22 -69 -92 20 -128 42 -128 78 0 52 49 48 106 -9z
m101 -32 c2 -7 -6 -10 -22 -6 -35 6 -44 24 -9 20 15 -2 29 -8 31 -14z m100
-95 l28 -12 -45 -14 c-46 -14 -125 -9 -115 8 6 9 59 27 87 28 9 1 29 -4 45
-10z m62 -47 c9 -17 3 -21 -47 -35 -33 -9 -61 -12 -66 -7 -16 16 2 38 41 48
55 14 61 14 72 -6z m-385 -19 c-7 -16 -14 -33 -14 -39 0 -6 -8 -18 -17 -25
-15 -13 -16 -11 -10 21 4 19 17 43 28 53 28 23 30 22 13 -10z m97 17 c32 -18
22 -26 -31 -26 -52 0 -58 4 -38 24 15 15 43 15 69 2z m147 -18 c13 -17 15 -44
6 -79 -4 -16 -17 -24 -41 -29 -60 -11 -90 40 -63 111 9 23 13 25 47 19 21 -3
44 -13 51 -22z m-142 -30 c23 -15 25 -61 4 -82 -11 -11 -25 -20 -31 -20 -16 0
-69 56 -69 74 0 28 67 48 96 28z m-386 -62 c0 -43 -12 -50 -42 -23 -24 22 -23
42 5 53 35 14 37 12 37 -30z m53 29 c32 -17 32 -17 7 -44 -32 -34 -40 -31 -40
15 0 44 1 45 33 29z m231 -24 c3 -8 1 -15 -4 -15 -6 0 -10 7 -10 15 0 8 2 15
4 15 2 0 6 -7 10 -15z m-337 -37 c32 -30 29 -38 -17 -38 -41 0 -47 8 -30 41
13 24 18 24 47 -3z m173 3 c17 -33 11 -41 -30 -41 -46 0 -48 5 -18 37 26 28
34 29 48 4z m148 -1 c20 0 22 -5 22 -55 l0 -55 -79 0 -80 0 9 31 c5 17 6 45 3
61 l-6 31 54 -6 c30 -4 64 -7 77 -7z m215 -3 c33 1 37 -2 37 -23 0 -36 -38
-51 -76 -30 -57 30 -59 33 -44 51 8 10 19 13 29 8 9 -4 33 -7 54 -6z m-75 -52
l53 -33 -30 -22 c-17 -12 -31 -28 -31 -36 0 -21 -21 -17 -61 10 -33 23 -35 27
-33 73 1 26 2 49 3 51 3 8 50 -13 99 -43z m-380 3 c-2 -13 -10 -23 -18 -23 -8
0 -16 10 -18 23 -3 17 2 22 18 22 16 0 21 -5 18 -22z m582 -17 c-42 -37 -80
-51 -139 -51 -20 0 -16 6 30 39 53 38 77 47 129 49 23 1 21 -2 -20 -37z m110
-5 c5 -16 -3 -28 -42 -59 l-50 -39 -24 23 c-13 13 -23 26 -22 30 2 4 26 25 53
47 53 42 68 42 85 -2z m-750 6 c0 -5 -13 -20 -28 -35 l-29 -27 -11 25 c-18 40
-15 45 28 45 22 0 40 -4 40 -8z m160 -5 c0 -7 -7 -23 -16 -36 l-16 -22 -24 22
c-36 34 -31 49 16 49 26 0 40 -5 40 -13z m-130 -57 c0 -43 -5 -46 -45 -28
l-25 11 27 29 c15 15 30 28 35 28 4 0 8 -18 8 -40z m61 14 c24 -25 24 -26 5
-40 -34 -24 -46 -17 -46 26 0 47 8 49 41 14z m272 -37 l39 -24 -28 -18 c-27
-18 -29 -18 -66 4 l-38 22 -6 -30 c-8 -41 -24 -52 -59 -42 -22 5 -31 15 -36
39 -4 18 -11 38 -18 45 -18 22 -2 27 88 27 72 0 92 -4 124 -23z m217 -17 c0
-31 -4 -40 -17 -40 -10 0 -42 -3 -70 -6 l-53 -7 0 36 c0 38 2 40 70 50 67 11
70 10 70 -33z m160 12 c0 -7 -92 -62 -103 -62 -3 0 -10 13 -16 30 -10 30 2 44
13 15 8 -21 26 -18 60 10 27 22 46 25 46 7z m-588 -67 c-11 -23 -16 -25 -82
-25 -40 0 -70 4 -70 10 0 6 -4 10 -9 10 -5 0 -22 5 -38 11 l-28 11 22 18 c19
15 28 16 61 7 31 -8 48 -7 78 5 36 14 40 14 58 -3 17 -15 18 -22 8 -44z m458
16 c0 -26 -4 -28 -85 -35 -46 -4 -63 -3 -50 3 11 5 34 10 52 10 42 1 63 10 63
27 0 8 5 14 10 14 6 0 10 -9 10 -19z"/>
<path d="M173 612 c20 -21 37 -43 37 -50 0 -22 19 -12 34 17 9 16 28 38 43 50
22 16 24 20 10 21 -10 0 -31 -14 -46 -31 l-28 -30 -31 30 c-17 17 -36 31 -43
31 -7 0 4 -17 24 -38z"/>
<path d="M760 402 c0 -21 29 -32 81 -32 59 0 89 7 89 19 0 4 -28 4 -62 0 -49
-6 -67 -4 -79 7 -17 16 -29 18 -29 6z"/>
</g>
</svg>
