<?xml version="1.0" standalone="no"?>
<!DOCTYPE svg PUBLIC "-//W3C//DTD SVG 20010904//EN"
 "http://www.w3.org/TR/2001/REC-SVG-20010904/DTD/svg10.dtd">
<svg version="1.0" xmlns="http://www.w3.org/2000/svg"
 width="102.000000pt" height="102.000000pt" viewBox="0 0 102.000000 102.000000"
 preserveAspectRatio="xMidYMid meet">

<g transform="translate(0.000000,102.000000) scale(0.100000,-0.100000)"
fill="#000000" stroke="none">
<path d="M460 931 c0 -5 4 -21 9 -34 8 -20 6 -29 -8 -42 -22 -19 -33 -64 -24
-105 8 -43 19 -37 39 23 9 28 18 54 20 56 8 9 34 -23 34 -43 0 -32 20 -96 29
-96 5 0 11 8 14 19 2 10 18 25 35 34 29 14 33 14 57 -5 23 -18 31 -19 72 -9
57 15 71 5 53 -39 -7 -17 -10 -34 -6 -37 10 -11 67 49 87 92 25 55 24 94 -6
138 -31 45 -49 48 -43 6 4 -25 1 -32 -19 -40 -19 -7 -31 -4 -55 12 -30 22 -38
20 -52 -16 -2 -5 -17 3 -34 19 -25 23 -29 33 -22 47 13 24 13 29 -4 29 -22 0
-72 -46 -86 -80 -7 -16 -17 -30 -22 -30 -5 0 -20 25 -34 55 -24 53 -34 66 -34
46z m152 -98 c-3 -54 -8 -73 -18 -73 -8 0 -17 -7 -20 -15 -11 -27 -24 -5 -24
38 0 40 28 103 53 119 15 9 14 13 9 -69z m252 16 c16 -39 7 -87 -24 -126 l-23
-28 7 30 c4 17 9 58 13 93 3 34 8 62 10 62 2 0 10 -14 17 -31z m-154 -19 c16
21 20 22 35 10 9 -8 32 -13 51 -12 33 3 34 1 28 -25 -13 -60 -15 -64 -27 -54
-8 6 -28 6 -59 -1 -42 -10 -49 -9 -77 13 -24 19 -30 32 -30 63 l-1 40 31 -30
30 -29 19 25z m-240 -29 c-12 -45 -34 -47 -24 -3 7 29 24 55 31 48 2 -2 -1
-23 -7 -45z"/>
<path d="M225 856 c-16 -7 -39 -23 -50 -36 l-20 -22 43 -36 c32 -28 41 -42 36
-55 -5 -14 -13 -17 -33 -12 -69 19 -92 22 -96 15 -3 -5 13 -11 34 -15 60 -10
72 -23 55 -62 -12 -28 -19 -33 -48 -33 -19 0 -38 -4 -41 -10 -4 -6 9 -10 30
-10 34 0 37 -2 32 -22 -4 -13 -9 -42 -13 -64 -5 -36 -10 -43 -35 -48 -16 -3
-29 -10 -29 -15 0 -6 12 -8 28 -5 27 5 27 5 44 -81 14 -76 15 -91 2 -121 -8
-18 -14 -41 -14 -51 0 -27 20 -93 28 -93 4 0 16 16 26 35 27 49 86 87 146 93
28 2 50 8 50 12 0 16 -111 50 -162 50 -45 0 -56 18 -65 108 -6 57 0 62 51 42
16 -6 26 -6 26 0 0 5 -18 15 -40 21 -43 13 -47 23 -34 88 9 42 26 39 68 -11
20 -23 36 -35 36 -28 0 8 -19 33 -41 56 -42 43 -46 64 -19 104 8 13 17 8 49
-26 21 -22 40 -47 43 -55 3 -7 8 -11 12 -7 12 10 -21 64 -54 90 -21 17 -29 29
-24 41 9 24 21 21 66 -14 21 -17 40 -30 42 -28 2 2 6 52 9 112 l6 107 -57 0
c-31 -1 -70 -7 -87 -14z m125 -73 c0 -43 -4 -83 -8 -90 -5 -8 -26 3 -67 34
-33 24 -69 51 -79 58 -16 12 -17 17 -6 30 14 17 92 43 133 44 l27 1 0 -77z
m-41 -539 c32 -7 43 -24 16 -24 -28 0 -94 -40 -116 -70 -12 -16 -26 -27 -31
-24 -14 9 -9 78 8 102 16 23 58 29 123 16z"/>
<path d="M262 811 c-20 -12 -11 -55 12 -59 27 -6 48 25 35 49 -10 20 -26 24
-47 10z m33 -22 c10 -15 -1 -23 -20 -15 -9 3 -13 10 -10 16 8 13 22 13 30 -1z"/>
<path d="M677 649 c-27 -16 -69 -38 -95 -47 -36 -14 -57 -32 -100 -87 -59 -78
-111 -115 -159 -115 -18 0 -33 -4 -33 -9 0 -17 74 -71 106 -77 44 -8 69 2 108
42 l33 34 5 -83 c5 -105 33 -161 97 -196 83 -46 238 -23 302 45 12 13 20 26
18 28 -3 3 -35 0 -72 -7 -96 -16 -143 1 -174 63 -37 71 -33 77 46 82 113 8
167 55 141 122 l-11 30 -29 -32 c-24 -27 -36 -32 -74 -32 -60 0 -94 17 -100
49 -20 107 -21 104 28 140 50 35 52 38 32 64 -17 21 -12 22 -69 -14z m62 -12
c-2 -1 -21 -15 -42 -30 -34 -26 -57 -29 -57 -7 0 14 84 59 94 49 5 -5 8 -10 5
-12z m-153 -94 c-14 -27 -35 -72 -47 -101 -42 -102 -119 -139 -188 -88 l-33
25 43 11 c33 9 56 25 89 62 94 105 128 138 144 138 15 0 14 -6 -8 -47z m60 12
c12 -18 18 -62 24 -160 8 -145 19 -179 73 -219 23 -17 41 -20 104 -19 65 2 73
0 57 -12 -28 -19 -122 -45 -163 -45 -49 1 -111 30 -143 68 -59 70 -60 244 -3
357 16 30 30 55 31 55 2 0 11 -11 20 -25z m244 -141 c0 -46 -34 -65 -147 -79
l-53 -7 0 42 c0 39 1 41 23 33 41 -15 125 -9 144 10 21 21 33 22 33 1z"/>
</g>
</svg>
