<?xml version="1.0" standalone="no"?>
<!DOCTYPE svg PUBLIC "-//W3C//DTD SVG 20010904//EN"
 "http://www.w3.org/TR/2001/REC-SVG-20010904/DTD/svg10.dtd">
<svg version="1.0" xmlns="http://www.w3.org/2000/svg"
 width="102.000000pt" height="102.000000pt" viewBox="0 0 102.000000 102.000000"
 preserveAspectRatio="xMidYMid meet">

<g transform="translate(0.000000,102.000000) scale(0.100000,-0.100000)"
fill="#000000" stroke="none">
<path d="M406 926 c-62 -23 -109 -67 -143 -136 -57 -111 -40 -224 49 -313 40
-40 48 -54 48 -86 0 -25 7 -44 20 -56 17 -15 20 -31 20 -97 0 -44 5 -89 11
-101 32 -63 107 -76 161 -28 32 29 33 31 34 119 1 77 4 92 23 111 14 14 21 34
21 59 0 30 6 42 34 64 19 15 47 53 63 85 67 137 12 303 -123 368 -50 25 -165
30 -218 11z m200 -21 c49 -20 105 -76 130 -130 47 -101 21 -220 -64 -297 -34
-31 -42 -45 -42 -72 0 -49 -9 -66 -35 -66 -21 0 -23 6 -29 73 -6 68 -4 80 38
204 24 73 41 135 37 137 -4 3 -18 -8 -30 -24 -25 -35 -41 -38 -59 -10 -7 11
-20 20 -31 20 -10 0 -26 -9 -36 -20 -24 -27 -33 -25 -37 8 -2 22 -8 28 -35 30
-42 4 -42 2 1 -157 30 -108 33 -135 28 -191 -7 -61 -9 -65 -32 -65 -22 0 -25
5 -28 45 -3 38 -10 51 -48 88 -61 58 -84 111 -84 192 0 129 77 220 215 254 28
6 104 -3 141 -19z m-169 -195 c13 -35 32 -38 58 -10 23 26 33 25 55 -2 16 -20
21 -21 39 -10 12 7 21 9 21 5 0 -20 -55 -171 -61 -167 -4 2 -10 26 -14 53 -8
60 -29 94 -44 71 -6 -8 -13 -39 -17 -68 -3 -29 -10 -54 -14 -57 -6 -4 -60 178
-60 204 0 23 26 9 37 -19z m82 -137 c1 -14 -5 -23 -14 -23 -16 0 -20 35 -8 66
6 16 7 16 14 -2 4 -10 8 -29 8 -41z m9 -55 c20 -20 14 -28 -23 -28 -38 0 -38
0 -29 24 7 19 35 21 52 4z m16 -70 c3 -13 7 -42 8 -65 l4 -43 -54 0 -54 0 6
31 c3 17 6 47 6 65 0 33 1 34 40 34 33 0 40 -4 44 -22z m-94 -138 c-19 -13
-30 -13 -30 0 0 6 10 10 23 10 18 0 19 -2 7 -10z m140 -1 c0 -14 -76 -46 -128
-55 -35 -5 -42 -4 -42 10 0 9 12 21 28 26 15 6 34 14 42 19 21 13 100 13 100
0z m0 -53 c0 -19 -10 -28 -47 -44 -27 -11 -65 -23 -85 -27 -36 -7 -38 -6 -38
18 0 23 6 27 53 37 28 6 63 17 77 24 36 20 40 19 40 -8z m0 -66 c0 -22 -31
-41 -99 -61 -40 -12 -45 -11 -57 6 -13 18 -10 21 63 46 99 33 93 32 93 9z
m-20 -60 c0 -16 -60 -41 -82 -34 -18 5 -13 9 28 24 27 9 50 18 52 19 1 0 2 -3
2 -9z"/>
<path d="M355 811 c-45 -65 -73 -171 -45 -171 6 0 10 15 10 33 0 37 39 125 63
146 18 14 22 31 8 31 -4 0 -21 -18 -36 -39z"/>
<path d="M172 828 c-41 -61 -55 -110 -50 -181 4 -65 22 -113 62 -162 39 -48
41 -22 2 29 -72 95 -66 248 13 320 22 20 27 36 11 36 -5 0 -22 -19 -38 -42z"/>
<path d="M790 861 c0 -5 7 -15 17 -22 32 -27 63 -111 63 -174 0 -63 -31 -147
-63 -174 -10 -7 -17 -18 -17 -24 0 -18 51 36 72 77 25 49 34 138 19 191 -12
45 -58 122 -78 129 -7 3 -13 2 -13 -3z"/>
</g>
</svg>
