<?xml version="1.0" standalone="no"?>
<!DOCTYPE svg PUBLIC "-//W3C//DTD SVG 20010904//EN"
 "http://www.w3.org/TR/2001/REC-SVG-20010904/DTD/svg10.dtd">
<svg version="1.0" xmlns="http://www.w3.org/2000/svg"
 width="102.000000pt" height="102.000000pt" viewBox="0 0 102.000000 102.000000"
 preserveAspectRatio="xMidYMid meet">

<g transform="translate(0.000000,102.000000) scale(0.100000,-0.100000)"
fill="#000000" stroke="none">
<path d="M693 928 c-12 -6 -29 -28 -37 -49 -19 -48 -20 -59 -3 -59 8 0 13 -17
13 -49 2 -48 1 -49 -36 -66 -26 -12 -51 -35 -74 -70 -29 -45 -38 -52 -60 -48
-16 3 -36 -3 -55 -16 -34 -25 -61 -27 -61 -6 0 12 -17 15 -89 15 -79 0 -89 -2
-94 -19 -3 -11 -17 -22 -36 -26 -17 -4 -39 -18 -48 -32 -16 -23 -16 -26 0 -35
13 -7 17 -23 17 -67 0 -32 3 -119 7 -194 l6 -137 32 0 c27 0 34 5 39 25 8 30
41 34 56 6 15 -29 47 -35 76 -16 23 15 25 21 19 63 -7 53 28 299 45 316 5 5
10 25 10 42 0 43 13 50 47 25 16 -12 42 -23 58 -26 25 -5 34 0 55 28 l25 34 1
-56 c0 -31 6 -73 13 -94 17 -50 -2 -235 -30 -290 -10 -21 -19 -42 -19 -47 0
-6 25 -10 55 -10 63 0 70 8 96 105 l16 60 13 -60 c19 -91 32 -105 96 -105 30
0 54 4 54 10 0 5 -9 26 -19 47 -21 42 -47 228 -37 268 4 14 23 36 45 49 41 26
74 66 86 104 5 18 -3 34 -41 78 -26 31 -66 65 -90 77 -42 20 -43 21 -41 69 1
32 6 48 15 48 15 0 9 48 -10 83 -17 33 -73 45 -115 25z m57 -38 c0 -16 5 -30
10 -30 6 0 10 12 10 27 0 24 2 25 14 13 8 -8 17 -25 21 -37 6 -22 3 -23 -47
-25 -29 0 -62 -1 -73 -2 -27 -1 -30 26 -6 55 l20 24 1 -27 c0 -16 5 -28 10
-28 6 0 10 14 10 30 0 20 5 30 15 30 10 0 15 -10 15 -30z m38 -108 c6 -63 -59
-97 -92 -50 -17 23 -21 69 -9 82 4 4 28 6 53 4 43 -3 45 -4 48 -36z m-78 -84
c15 -10 26 -10 52 0 17 6 33 10 35 8 2 -2 -11 -25 -29 -50 l-32 -47 -17 22
c-51 69 -55 95 -9 67z m-47 -180 c-2 -5 -13 -8 -23 -8 -18 0 -19 5 -14 58 4
38 2 67 -6 82 -10 18 -9 24 1 31 11 7 17 -9 30 -74 9 -45 14 -85 12 -89z m138
85 l-16 -88 -50 0 -50 0 -13 70 c-17 98 -12 107 27 47 18 -29 35 -52 37 -52 2
0 20 25 40 55 20 30 38 55 39 55 1 0 -6 -39 -14 -87z m52 58 c-4 -9 -8 -47 -7
-84 1 -64 0 -68 -20 -65 -12 2 -20 6 -20 11 1 4 7 43 14 86 10 62 15 78 27 74
9 -4 11 -11 6 -22z m-244 -46 c0 -11 -15 -38 -33 -59 -34 -39 -55 -43 -95 -17
-20 13 -2 34 24 27 19 -5 28 2 55 45 33 51 50 52 49 4z m315 -1 c46 -52 44
-75 -9 -129 -58 -58 -79 -37 -25 25 16 19 29 38 30 42 0 3 -16 15 -35 26 -32
20 -34 23 -24 51 6 17 14 31 17 30 4 0 24 -21 46 -45z m-564 -54 c0 -6 -32
-10 -75 -10 -43 0 -75 4 -75 10 0 6 32 10 75 10 43 0 75 -4 75 -10z m529 -27
c-12 -13 -14 -13 -20 4 -12 30 -10 34 12 23 17 -10 18 -14 8 -27z m-489 -28
l0 -25 -142 0 c-139 0 -141 0 -124 19 23 25 39 28 164 30 l102 1 0 -25z m450
-15 c0 -6 -45 -10 -115 -10 -70 0 -115 4 -115 10 0 6 45 10 115 10 70 0 115
-4 115 -10z m-630 -115 c4 -71 7 -83 13 -56 4 18 7 60 7 93 0 56 1 59 23 56
21 -3 22 -8 25 -90 4 -116 22 -114 22 2 l0 90 35 0 c41 0 41 3 20 -130 -26
-166 -24 -160 -46 -160 -11 0 -30 -11 -43 -25 -13 -14 -33 -25 -46 -25 -13 0
-24 -8 -27 -20 -3 -11 -13 -20 -23 -20 -22 0 -30 59 -30 243 l0 138 33 -3 32
-3 5 -90z m618 68 c-3 -24 -10 -30 -54 -41 -43 -12 -58 -12 -100 0 -42 12 -49
18 -52 41 l-3 27 106 0 106 0 -3 -27z m-103 -67 c11 0 34 3 51 6 30 7 32 5 38
-25 4 -18 9 -64 13 -103 5 -69 5 -71 -18 -77 -42 -12 -48 -8 -59 36 -21 81
-26 87 -39 42 -6 -22 -11 -48 -11 -57 0 -23 -15 -31 -50 -23 -26 6 -30 11 -30
41 0 19 5 66 11 104 l12 69 31 -7 c17 -3 40 -6 51 -6z m-390 -251 c0 -25 -4
-30 -24 -30 -32 0 -49 28 -31 50 7 9 23 15 34 13 16 -2 21 -10 21 -33z m342
27 c7 -4 9 -12 5 -18 -8 -13 -72 2 -72 16 0 12 50 13 67 2z m163 -2 c0 -14
-64 -29 -72 -16 -4 6 -2 14 5 18 17 11 67 10 67 -2z m-196 -36 c30 -11 16 -24
-25 -24 -36 0 -40 2 -29 15 13 16 29 19 54 9z m216 -9 c11 -13 7 -15 -29 -15
-39 0 -55 13 -28 23 23 10 45 7 57 -8z"/>
<path d="M730 740 c-12 -8 -11 -10 7 -10 12 0 25 5 28 10 8 13 -15 13 -35 0z"/>
<path d="M215 904 c-19 -29 -15 -48 14 -64 17 -9 23 -6 37 15 13 19 19 23 25
13 4 -7 4 -17 -1 -24 -14 -16 -1 -24 41 -24 33 0 38 4 48 31 15 42 14 52 -3
46 -8 -3 -22 3 -32 14 -12 14 -30 19 -64 19 -40 0 -50 -4 -65 -26z m46 -23
c-12 -22 -41 -29 -41 -9 0 6 8 20 17 30 21 24 39 8 24 -21z m78 8 c23 -31 22
-63 -2 -53 -11 4 -47 64 -47 79 0 16 30 0 49 -26z"/>
<path d="M130 831 c0 -5 5 -11 12 -13 9 -3 9 -11 -1 -35 -10 -25 -10 -37 4
-69 19 -46 30 -54 73 -54 31 0 32 2 32 40 0 36 -2 40 -26 40 -16 0 -24 5 -21
13 2 6 11 11 21 9 19 -3 20 4 5 47 -10 28 -15 31 -55 31 -24 0 -44 -4 -44 -9z
m80 -21 c6 -11 7 -20 3 -20 -5 0 -17 -16 -27 -35 -18 -33 -36 -38 -36 -11 0
22 30 86 40 86 5 0 14 -9 20 -20z m30 -110 c0 -15 -7 -20 -29 -20 -17 0 -33 5
-36 10 -11 17 5 30 36 30 22 0 29 -5 29 -20z"/>
<path d="M362 805 c-21 -15 -21 -17 -6 -40 15 -24 15 -25 -4 -25 -11 0 -23 6
-25 13 -3 8 -14 1 -31 -18 -14 -16 -25 -32 -25 -35 0 -3 11 -18 26 -35 17 -19
28 -25 31 -17 2 6 17 12 32 12 52 0 88 87 56 135 -19 29 -24 30 -54 10z m46
-30 c8 -17 8 -26 1 -31 -16 -9 -43 22 -36 40 9 23 22 20 35 -9z m-12 -72 c-3
-8 -6 -17 -6 -19 0 -2 -20 -4 -44 -4 -28 0 -46 5 -49 14 -9 23 10 31 58 28 36
-3 45 -7 41 -19z"/>
</g>
</svg>
